<svg id="usMap" viewBox="0 0 960 600" xmlns="http://www.w3.org/2000/svg" class="w-full cursor-pointer"><path id="CA" data-name="California" d="M90,323 L100,280 L150,290 L140,330 Z" fill="#a0c4ff" stroke="#fff" /><path id="TX" data-name="Texas" d="M300,400 L350,360 L400,400 L380,440 Z" fill="#a0c4ff" stroke="#fff" /><path id="NY" data-name="New York" d="M820,160 L830,150 L840,160 L830,170 Z" fill="#a0c4ff" stroke="#fff" /><path id="FL" data-name="Florida" d="M750,500 L760,470 L780,490 L770,520 Z" fill="#a0c4ff" stroke="#fff" /><path id="IL" data-name="Illinois" d="M600,250 L610,240 L620,250 L610,260 Z" fill="#a0c4ff" stroke="#fff" /><path id="PA" data-name="Pennsylvania" d="M780,180 L790,170 L800,180 L790,190 Z" fill="#a0c4ff" stroke="#fff" /><path id="OH" data-name="Ohio" d="M730,200 L740,190 L750,200 L740,210 Z" fill="#a0c4ff" stroke="#fff" /><path id="MI" data-name="Michigan" d="M680,180 L690,170 L700,180 L690,190 Z" fill="#a0c4ff" stroke="#fff" /><path id="GA" data-name="Georgia" d="M700,420 L710,410 L720,420 L710,430 Z" fill="#a0c4ff" stroke="#fff" /><path id="NC" data-name="North Carolina" d="M730,400 L740,390 L750,400 L740,410 Z" fill="#a0c4ff" stroke="#fff" /><path id="NJ" data-name="New Jersey" d="M810,170 L820,160 L830,170 L820,180 Z" fill="#a0c4ff" stroke="#fff" /><path id="VA" data-name="Virginia" d="M750,370 L760,360 L770,370 L760,380 Z" fill="#a0c4ff" stroke="#fff" /><path id="WA" data-name="Washington" d="M50,150 L60,140 L70,150 L60,160 Z" fill="#a0c4ff" stroke="#fff" /><path id="AZ" data-name="Arizona" d="M200,350 L210,340 L220,350 L210,360 Z" fill="#a0c4ff" stroke="#fff" /><path id="MA" data-name="Massachusetts" d="M860,150 L870,140 L880,150 L870,160 Z" fill="#a0c4ff" stroke="#fff" /><path id="TN" data-name="Tennessee" d="M660,370 L670,360 L680,370 L670,380 Z" fill="#a0c4ff" stroke="#fff" /><path id="IN" data-name="Indiana" d="M620,260 L630,250 L640,260 L630,270 Z" fill="#a0c4ff" stroke="#fff" /><path id="MO" data-name="Missouri" d="M580,300 L590,290 L600,300 L590,310 Z" fill="#a0c4ff" stroke="#fff" /><path id="WI" data-name="Wisconsin" d="M620,200 L630,190 L640,200 L630,210 Z" fill="#a0c4ff" stroke="#fff" /><path id="CO" data-name="Colorado" d="M400,300 L410,290 L420,300 L410,310 Z" fill="#a0c4ff" stroke="#fff" /><path id="MN" data-name="Minnesota" d="M600,150 L610,140 L620,150 L610,160 Z" fill="#a0c4ff" stroke="#fff" /><path id="SC" data-name="South Carolina" d="M720,430 L730,420 L740,430 L730,440 Z" fill="#a0c4ff" stroke="#fff" /><path id="AL" data-name="Alabama" d="M670,430 L680,420 L690,430 L680,440 Z" fill="#a0c4ff" stroke="#fff" /><path id="LA" data-name="Louisiana" d="M630,470 L640,460 L650,470 L640,480 Z" fill="#a0c4ff" stroke="#fff" /><path id="KY" data-name="Kentucky" d="M680,340 L690,330 L700,340 L690,350 Z" fill="#a0c4ff" stroke="#fff" /><path id="OR" data-name="Oregon" d="M100,180 L110,170 L120,180 L110,190 Z" fill="#a0c4ff" stroke="#fff" /><path id="OK" data-name="Oklahoma" d="M500,400 L510,390 L520,400 L510,410 Z" fill="#a0c4ff" stroke="#fff" /><path id="CT" data-name="Connecticut" d="M870,160 L880,150 L890,160 L880,170 Z" fill="#a0c4ff" stroke="#fff" /><path id="IA" data-name="Iowa" d="M580,240 L590,230 L600,240 L590,250 Z" fill="#a0c4ff" stroke="#fff" /><path id="MS" data-name="Mississippi" d="M650,450 L660,440 L670,450 L660,460 Z" fill="#a0c4ff" stroke="#fff" /><path id="AR" data-name="Arkansas" d="M590,370 L600,360 L610,370 L600,380 Z" fill="#a0c4ff" stroke="#fff" /><path id="KS" data-name="Kansas" d="M520,320 L530,310 L540,320 L530,330 Z" fill="#a0c4ff" stroke="#fff" /><path id="NV" data-name="Nevada" d="M150,280 L160,270 L170,280 L160,290 Z" fill="#a0c4ff" stroke="#fff" /><path id="UT" data-name="Utah" d="M250,270 L260,260 L270,270 L260,280 Z" fill="#a0c4ff" stroke="#fff" /><path id="NE" data-name="Nebraska" d="M500,260 L510,250 L520,260 L510,270 Z" fill="#a0c4ff" stroke="#fff" /><path id="NM" data-name="New Mexico" d="M310,390 L320,380 L330,390 L320,400 Z" fill="#a0c4ff" stroke="#fff" /><path id="WV" data-name="West Virginia" d="M760,320 L770,310 L780,320 L770,330 Z" fill="#a0c4ff" stroke="#fff" /><path id="ID" data-name="Idaho" d="M100,200 L110,190 L120,200 L110,210 Z" fill="#a0c4ff" stroke="#fff" /><path id="HI" data-name="Hawaii" d="M180,520 L190,510 L200,520 L190,530 Z" fill="#a0c4ff" stroke="#fff" /><path id="ME" data-name="Maine" d="M900,100 L910,90 L920,100 L910,110 Z" fill="#a0c4ff" stroke="#fff" /><path id="NH" data-name="New Hampshire" d="M880,130 L890,120 L900,130 L890,140 Z" fill="#a0c4ff" stroke="#fff" /><path id="MT" data-name="Montana" d="M200,150 L210,140 L220,150 L210,160 Z" fill="#a0c4ff" stroke="#fff" /><path id="RI" data-name="Rhode Island" d="M890,150 L900,140 L910,150 L900,160 Z" fill="#a0c4ff" stroke="#fff" /><path id="DE" data-name="Delaware" d="M860,180 L870,170 L880,180 L870,190 Z" fill="#a0c4ff" stroke="#fff" /><path id="SD" data-name="South Dakota" d="M500,200 L510,190 L520,200 L510,210 Z" fill="#a0c4ff" stroke="#fff" /><path id="ND" data-name="North Dakota" d="M500,150 L510,140 L520,150 L510,160 Z" fill="#a0c4ff" stroke="#fff" /><path id="DC" data-name="District of Columbia" d="M860,190 L870,180 L880,190 L870,200 Z" fill="#a0c4ff" stroke="#fff" /><path id="VT" data-name="Vermont" d="M880,110 L890,100 L900,110 L890,120 Z" fill="#a0c4ff" stroke="#fff" /><path id="AK" data-name="Alaska" d="M50,520 L60,510 L70,520 L60,530 Z" fill="#a0c4ff" stroke="#fff" /><path id="WY" data-name="Wyoming" d="M300,240 L310,230 L320,240 L310,250 Z" fill="#a0c4ff" stroke="#fff" /></svg>